<svg width="155" height="46" viewBox="0 0 155 46" fill="none" xmlns="http://www.w3.org/2000/svg">
<g clip-path="url(#clip0_764_2725)">
<path d="M45.5096 22.9167C45.5096 15.9361 39.8308 10.2578 32.8518 10.2578C25.8715 10.2578 20.1934 15.9361 20.1934 22.9167C20.1934 29.896 25.8715 35.5742 32.8518 35.5742C39.8308 35.5742 45.5096 29.896 45.5096 22.9167ZM42.0636 28.7737C41.4487 28.5448 40.7764 28.3424 40.0632 28.1644C40.4858 26.7522 40.7391 25.2008 40.7943 23.564H43.7489C43.6356 25.4742 43.035 27.2495 42.0636 28.7737ZM41.9351 16.8503C42.987 18.416 43.6298 20.2724 43.7482 22.2695H40.7936C40.7377 20.5372 40.4543 18.9026 39.9872 17.4286C40.6817 17.2579 41.336 17.0648 41.9351 16.8503ZM41.0899 15.7531C40.6107 15.9124 40.0855 16.0545 39.5402 16.1851C39.0659 15.042 38.4776 14.028 37.7946 13.1834C39.0537 13.8221 40.1701 14.6997 41.0899 15.7531ZM36.2735 22.2695C36.2563 21.0266 36.1824 19.557 36.0267 18.0738C36.9802 17.9862 37.8835 17.8592 38.7395 17.6999C39.1786 19.0769 39.4448 20.6255 39.5007 22.2695H36.2735ZM39.5007 23.5647C39.4476 25.1126 39.2051 26.5736 38.8098 27.8903C37.9431 27.7239 37.0211 27.5911 36.0525 27.5014C36.1881 26.1071 36.2577 24.7358 36.2735 23.5647H39.5007ZM38.2745 16.4549C37.5212 16.5919 36.7169 16.7032 35.8674 16.7828C35.6256 15.0427 35.2561 13.4016 34.7259 12.224C36.1738 12.9373 37.4172 14.4485 38.2745 16.4549ZM30.726 22.2695C30.7439 20.7389 30.8264 19.3647 30.952 18.1649C31.5719 18.1993 32.2018 18.2209 32.8511 18.2209C33.499 18.2209 34.1297 18.1993 34.7496 18.1649C34.8759 19.3647 34.9584 20.7389 34.9777 22.2695H30.726ZM34.9792 23.5647C34.962 24.9877 34.8873 26.2722 34.7776 27.4096C34.1483 27.3758 33.5091 27.3521 32.8518 27.3521C32.1932 27.3521 31.5546 27.3758 30.9276 27.4096C30.8164 26.2722 30.7439 24.9877 30.726 23.5647H34.9792ZM32.5369 12.0015C32.6416 11.9994 32.7457 11.9865 32.8518 11.9865C32.9566 11.9865 33.0599 12.0001 33.1661 12.0015C33.6095 12.5677 34.2021 14.2038 34.5903 16.8747C34.0228 16.9055 33.4466 16.9242 32.8511 16.9242C32.2542 16.9242 31.678 16.9055 31.1134 16.8754C31.5008 14.2045 32.0935 12.5677 32.5369 12.0015ZM30.9792 12.2247C30.449 13.4008 30.0781 15.0434 29.8363 16.7835C28.9882 16.7039 28.1839 16.5934 27.4284 16.4556C28.2851 14.4485 29.5299 12.9351 30.9792 12.2247ZM29.4302 22.2695H26.203C26.2604 20.6255 26.5258 19.0769 26.9642 17.6999C27.8209 17.8606 28.7242 17.9862 29.6777 18.0738C29.522 19.557 29.4474 21.0266 29.4302 22.2695ZM29.6519 27.5014C28.6826 27.5911 27.7613 27.7239 26.8925 27.8896C26.4978 26.5736 26.2561 25.1126 26.2022 23.5647H29.4295C29.4453 24.7365 29.5148 26.1071 29.6519 27.5014ZM27.907 13.182C27.2275 14.0273 26.6378 15.0398 26.1628 16.1851C25.6175 16.0552 25.0937 15.9124 24.6145 15.7531C25.535 14.6975 26.6492 13.8221 27.907 13.182ZM23.7657 16.8503C24.3684 17.0648 25.0198 17.2579 25.7172 17.4294C25.2509 18.9026 24.966 20.5372 24.9101 22.2695H21.9548C22.0732 20.2739 22.7139 18.416 23.7657 16.8503ZM23.6387 28.7737C22.6665 27.2495 22.0681 25.4728 21.9541 23.564H24.9093C24.961 25.2008 25.2207 26.7522 25.6419 28.1637C24.9266 28.3431 24.255 28.5448 23.6387 28.7737ZM24.4351 29.8809C24.9388 29.7087 25.4912 29.5537 26.0717 29.4102C26.5603 30.6509 27.1809 31.7481 27.907 32.6522C26.5689 31.9705 25.3858 31.0276 24.4351 29.8809ZM27.3222 29.1396C28.0978 28.9933 28.9244 28.8777 29.799 28.7931C30.04 30.6308 30.4217 32.3745 30.9792 33.6081C29.4718 32.8675 28.1825 31.2673 27.3222 29.1396ZM33.1668 33.8327C33.0606 33.8355 32.9566 33.8477 32.8526 33.8477C32.7464 33.8477 32.6416 33.8355 32.5376 33.8327C32.0784 33.2485 31.4614 31.5285 31.0768 28.6998C31.6558 28.6696 32.2427 28.6488 32.8533 28.6488C33.4646 28.6488 34.0515 28.6703 34.6305 28.6998C34.243 31.5285 33.6253 33.2485 33.1668 33.8327ZM34.7259 33.6081C35.2827 32.3745 35.6636 30.6308 35.9069 28.7931C36.78 28.8777 37.608 28.9933 38.3815 29.1396C37.5212 31.2673 36.2333 32.8675 34.7259 33.6081ZM37.7946 32.6522C38.5228 31.7481 39.1434 30.6516 39.6335 29.4102C40.2125 29.5537 40.7642 29.7087 41.2679 29.8816C40.3179 31.0269 39.1334 31.9684 37.7946 32.6522Z" fill="url(#paint0_linear_764_2725)"/>
<path d="M52.8984 23.6531L49.1998 23.6523C48.8282 32.1062 42.0444 38.8903 33.5918 39.2613V43.3372C34.3229 43.307 35.0519 43.2503 35.7772 43.1413L36.786 45.8573L41.5881 44.491L41.0091 41.6056C42.4706 40.949 43.869 40.1195 45.169 39.0977L47.4521 41.0452L50.9835 37.5161L48.9788 35.1689C49.941 33.8665 50.7388 32.4794 51.3487 31.0327L54.4288 31.6491L55.7928 26.8478L52.7592 25.7183C52.8453 25.0308 52.8841 24.3412 52.8984 23.6531Z" fill="url(#paint1_linear_764_2725)"/>
<path d="M16.5264 23.6523H12.5953C12.6111 24.3706 12.6535 25.0882 12.7453 25.8037L9.93206 26.8492L10.4307 28.6037H7.1138C6.93802 27.9736 6.36619 27.5094 5.68028 27.5094C4.85446 27.5094 4.18506 28.1782 4.18506 29.0034C4.18506 29.83 4.85446 30.4988 5.68028 30.4988C6.36619 30.4988 6.93802 30.0346 7.1138 29.4045H10.6581L11.2967 31.6513L14.1645 31.0765C14.511 31.896 14.9221 32.6918 15.3849 33.4668H2.92874C2.75296 32.8367 2.18114 32.3724 1.49523 32.3724C0.669408 32.3724 0 33.0412 0 33.8665C0 34.6931 0.669408 35.3619 1.49523 35.3619C2.18114 35.3619 2.75296 34.8976 2.92874 34.2676H15.8821C16.1167 34.6228 16.3628 34.9723 16.6218 35.3153L14.7435 37.5183L18.2735 41.0495L20.446 39.1931C21.7791 40.22 23.2054 41.0574 24.6978 41.7082L24.1396 44.4953L28.9395 45.8602L29.9382 43.1779C30.6679 43.279 31.4019 43.3285 32.1359 43.3501V39.2649C23.6811 38.8931 16.8959 32.1069 16.5264 23.6523Z" fill="url(#paint2_linear_764_2725)"/>
<path d="M2.9464 23.3C3.63231 23.3 4.20414 22.8357 4.37992 22.2057H12.623H15.3107H16.5347C16.9064 13.7518 23.6902 6.96704 32.1421 6.59533V3.06122C31.4748 3.07988 30.8068 3.1215 30.1424 3.20761L28.95 0L24.1486 1.36485L24.808 4.65857C23.4082 5.25703 22.0665 6.03203 20.8023 6.96489L18.2811 4.81141L14.7511 8.34194L16.8468 10.799C15.8582 12.0633 15.0481 13.4181 14.4038 14.8325L11.305 14.2118L9.94039 19.0124L12.829 20.0867C12.7601 20.5237 12.7149 20.9643 12.6797 21.4049H4.37992C4.20414 20.7748 3.63231 20.3106 2.9464 20.3106C2.12058 20.3106 1.45117 20.9793 1.45117 21.8046C1.45117 22.6319 2.12058 23.3 2.9464 23.3Z" fill="url(#paint3_linear_764_2725)"/>
<path d="M64.529 10.9489C63.8431 10.9461 63.2698 11.4075 63.0904 12.0368L49.4971 11.9736C49.2639 11.6256 49.0207 11.2819 48.7631 10.9453L50.9844 8.34265L47.453 4.81069L44.8249 7.05531C43.5879 6.13105 42.2771 5.36252 40.9067 4.75616L41.5861 1.36485L36.7855 0L35.5816 3.23847C34.9193 3.1459 34.2549 3.09638 33.5898 3.06983L33.5906 6.59533C42.0446 6.96561 48.8298 13.7511 49.2008 22.2071L52.8785 22.2078L61.2616 22.2071C61.4374 22.8372 62.0092 23.3015 62.6951 23.3015C63.5209 23.3015 64.1903 22.6327 64.1903 21.8074C64.1903 20.9808 63.5209 20.312 62.6951 20.312C62.0099 20.312 61.4374 20.7763 61.2616 21.4063H52.8233C52.7896 20.9923 52.748 20.5789 52.6848 20.1663L55.7965 19.0124L55.168 16.803L58.406 16.8181C58.5789 17.4488 59.1486 17.916 59.8345 17.9196C60.6603 17.9231 61.3326 17.2579 61.3369 16.4327C61.3405 15.6061 60.6747 14.9337 59.8489 14.9301C59.163 14.9265 58.589 15.3886 58.4103 16.018L54.9406 16.0022L54.4319 14.2118L51.1186 14.8748C50.7936 14.1587 50.4226 13.4583 50.0115 12.7773L63.0897 12.8383C63.2626 13.4691 63.8323 13.9362 64.5182 13.9398C65.344 13.9434 66.017 13.2782 66.0206 12.453C66.0213 11.6249 65.3548 10.9525 64.529 10.9489Z" fill="url(#paint4_linear_764_2725)"/>
<path d="M66.102 45.144C64.998 45.144 64.026 44.928 63.186 44.496C62.358 44.064 61.716 43.476 61.26 42.732C60.804 41.976 60.576 41.118 60.576 40.158C60.576 39.186 60.798 38.328 61.242 37.584C61.698 36.828 62.316 36.24 63.096 35.82C63.876 35.388 64.758 35.172 65.742 35.172C66.69 35.172 67.542 35.376 68.298 35.784C69.066 36.18 69.672 36.756 70.116 37.512C70.56 38.256 70.782 39.15 70.782 40.194C70.782 40.302 70.776 40.428 70.764 40.572C70.752 40.704 70.74 40.83 70.728 40.95H62.862V39.312H69.252L68.172 39.798C68.172 39.294 68.07 38.856 67.866 38.484C67.662 38.112 67.38 37.824 67.02 37.62C66.66 37.404 66.24 37.296 65.76 37.296C65.28 37.296 64.854 37.404 64.482 37.62C64.122 37.824 63.84 38.118 63.636 38.502C63.432 38.874 63.33 39.318 63.33 39.834V40.266C63.33 40.794 63.444 41.262 63.672 41.67C63.912 42.066 64.242 42.372 64.662 42.588C65.094 42.792 65.598 42.894 66.174 42.894C66.69 42.894 67.14 42.816 67.524 42.66C67.92 42.504 68.28 42.27 68.604 41.958L70.098 43.578C69.654 44.082 69.096 44.472 68.424 44.748C67.752 45.012 66.978 45.144 66.102 45.144ZM76.9895 45.216C75.9815 45.216 75.0155 45.084 74.0915 44.82C73.1675 44.544 72.4235 44.19 71.8595 43.758L72.8495 41.562C73.3895 41.946 74.0255 42.264 74.7575 42.516C75.5015 42.756 76.2515 42.876 77.0075 42.876C77.5835 42.876 78.0455 42.822 78.3935 42.714C78.7535 42.594 79.0175 42.432 79.1855 42.228C79.3535 42.024 79.4375 41.79 79.4375 41.526C79.4375 41.19 79.3055 40.926 79.0415 40.734C78.7775 40.53 78.4295 40.368 77.9975 40.248C77.5655 40.116 77.0855 39.996 76.5575 39.888C76.0415 39.768 75.5195 39.624 74.9915 39.456C74.4755 39.288 74.0015 39.072 73.5695 38.808C73.1375 38.544 72.7835 38.196 72.5075 37.764C72.2435 37.332 72.1115 36.78 72.1115 36.108C72.1115 35.388 72.3035 34.734 72.6875 34.146C73.0835 33.546 73.6715 33.072 74.4515 32.724C75.2435 32.364 76.2335 32.184 77.4215 32.184C78.2135 32.184 78.9935 32.28 79.7615 32.472C80.5295 32.652 81.2075 32.928 81.7955 33.3L80.8955 35.514C80.3075 35.178 79.7195 34.932 79.1315 34.776C78.5435 34.608 77.9675 34.524 77.4035 34.524C76.8395 34.524 76.3775 34.59 76.0175 34.722C75.6575 34.854 75.3995 35.028 75.2435 35.244C75.0875 35.448 75.0095 35.688 75.0095 35.964C75.0095 36.288 75.1415 36.552 75.4055 36.756C75.6695 36.948 76.0175 37.104 76.4495 37.224C76.8815 37.344 77.3555 37.464 77.8715 37.584C78.3995 37.704 78.9215 37.842 79.4375 37.998C79.9655 38.154 80.4455 38.364 80.8775 38.628C81.3095 38.892 81.6575 39.24 81.9215 39.672C82.1975 40.104 82.3355 40.65 82.3355 41.31C82.3355 42.018 82.1375 42.666 81.7415 43.254C81.3455 43.842 80.7515 44.316 79.9595 44.676C79.1795 45.036 78.1895 45.216 76.9895 45.216ZM84.328 45V32.4H87.244V45H84.328ZM90.2342 45V32.4H92.6462L98.0102 41.292H96.7322L102.006 32.4H104.4L104.436 45H101.7L101.682 36.594H102.186L97.9742 43.668H96.6602L92.3582 36.594H92.9702V45H90.2342ZM112.523 45V32.4H114.935L122.369 41.472H121.199V32.4H124.079V45H121.685L114.233 35.928H115.403V45H112.523ZM131.668 45.144C130.564 45.144 129.592 44.928 128.752 44.496C127.924 44.064 127.282 43.476 126.826 42.732C126.37 41.976 126.142 41.118 126.142 40.158C126.142 39.186 126.364 38.328 126.808 37.584C127.264 36.828 127.882 36.24 128.662 35.82C129.442 35.388 130.324 35.172 131.308 35.172C132.256 35.172 133.108 35.376 133.864 35.784C134.632 36.18 135.238 36.756 135.682 37.512C136.126 38.256 136.348 39.15 136.348 40.194C136.348 40.302 136.342 40.428 136.33 40.572C136.318 40.704 136.306 40.83 136.294 40.95H128.428V39.312H134.818L133.738 39.798C133.738 39.294 133.636 38.856 133.432 38.484C133.228 38.112 132.946 37.824 132.586 37.62C132.226 37.404 131.806 37.296 131.326 37.296C130.846 37.296 130.42 37.404 130.048 37.62C129.688 37.824 129.406 38.118 129.202 38.502C128.998 38.874 128.896 39.318 128.896 39.834V40.266C128.896 40.794 129.01 41.262 129.238 41.67C129.478 42.066 129.808 42.372 130.228 42.588C130.66 42.792 131.164 42.894 131.74 42.894C132.256 42.894 132.706 42.816 133.09 42.66C133.486 42.504 133.846 42.27 134.17 41.958L135.664 43.578C135.22 44.082 134.662 44.472 133.99 44.748C133.318 45.012 132.544 45.144 131.668 45.144ZM141.476 45.144C140.648 45.144 139.85 45.048 139.082 44.856C138.326 44.652 137.726 44.4 137.282 44.1L138.218 42.084C138.662 42.36 139.184 42.588 139.784 42.768C140.396 42.936 140.996 43.02 141.584 43.02C142.232 43.02 142.688 42.942 142.952 42.786C143.228 42.63 143.366 42.414 143.366 42.138C143.366 41.91 143.258 41.742 143.042 41.634C142.838 41.514 142.562 41.424 142.214 41.364C141.866 41.304 141.482 41.244 141.062 41.184C140.654 41.124 140.24 41.046 139.82 40.95C139.4 40.842 139.016 40.686 138.668 40.482C138.32 40.278 138.038 40.002 137.822 39.654C137.618 39.306 137.516 38.856 137.516 38.304C137.516 37.692 137.69 37.152 138.038 36.684C138.398 36.216 138.914 35.85 139.586 35.586C140.258 35.31 141.062 35.172 141.998 35.172C142.658 35.172 143.33 35.244 144.014 35.388C144.698 35.532 145.268 35.742 145.724 36.018L144.788 38.016C144.32 37.74 143.846 37.554 143.366 37.458C142.898 37.35 142.442 37.296 141.998 37.296C141.374 37.296 140.918 37.38 140.63 37.548C140.342 37.716 140.198 37.932 140.198 38.196C140.198 38.436 140.3 38.616 140.504 38.736C140.72 38.856 141.002 38.952 141.35 39.024C141.698 39.096 142.076 39.162 142.484 39.222C142.904 39.27 143.324 39.348 143.744 39.456C144.164 39.564 144.542 39.72 144.878 39.924C145.226 40.116 145.508 40.386 145.724 40.734C145.94 41.07 146.048 41.514 146.048 42.066C146.048 42.666 145.868 43.2 145.508 43.668C145.148 44.124 144.626 44.484 143.942 44.748C143.27 45.012 142.448 45.144 141.476 45.144ZM151.74 45.144C150.6 45.144 149.712 44.856 149.076 44.28C148.44 43.692 148.122 42.822 148.122 41.67V33.174H150.93V41.634C150.93 42.042 151.038 42.36 151.254 42.588C151.47 42.804 151.764 42.912 152.136 42.912C152.58 42.912 152.958 42.792 153.27 42.552L154.026 44.532C153.738 44.736 153.39 44.892 152.982 45C152.586 45.096 152.172 45.144 151.74 45.144ZM146.628 37.692V35.532H153.342V37.692H146.628Z" fill="url(#paint5_linear_764_2725)"/>
</g>
<defs>
<linearGradient id="paint0_linear_764_2725" x1="20.1939" y1="22.9163" x2="45.5095" y2="22.9163" gradientUnits="userSpaceOnUse">
<stop stop-color="#E592FB"/>
<stop offset="0.5054" stop-color="#7B6DFA"/>
<stop offset="1" stop-color="#5E31F9"/>
</linearGradient>
<linearGradient id="paint1_linear_764_2725" x1="33.5918" y1="34.7545" x2="55.793" y2="34.7545" gradientUnits="userSpaceOnUse">
<stop stop-color="#E592FB"/>
<stop offset="0.5054" stop-color="#7B6DFA"/>
<stop offset="1" stop-color="#5E31F9"/>
</linearGradient>
<linearGradient id="paint2_linear_764_2725" x1="-0.000215244" y1="34.7561" x2="32.1357" y2="34.7561" gradientUnits="userSpaceOnUse">
<stop stop-color="#E592FB"/>
<stop offset="0.5054" stop-color="#7B6DFA"/>
<stop offset="1" stop-color="#5E31F9"/>
</linearGradient>
<linearGradient id="paint3_linear_764_2725" x1="1.45146" y1="11.6502" x2="32.1426" y2="11.6502" gradientUnits="userSpaceOnUse">
<stop stop-color="#E592FB"/>
<stop offset="0.5054" stop-color="#7B6DFA"/>
<stop offset="1" stop-color="#5E31F9"/>
</linearGradient>
<linearGradient id="paint4_linear_764_2725" x1="33.5892" y1="11.6502" x2="66.0173" y2="11.6502" gradientUnits="userSpaceOnUse">
<stop stop-color="#E592FB"/>
<stop offset="0.5054" stop-color="#7B6DFA"/>
<stop offset="1" stop-color="#5E31F9"/>
</linearGradient>
<linearGradient id="paint5_linear_764_2725" x1="60" y1="39" x2="155" y2="39" gradientUnits="userSpaceOnUse">
<stop stop-color="#E592FB"/>
<stop offset="1" stop-color="#5E31F9"/>
</linearGradient>
<clipPath id="clip0_764_2725">
<rect width="155" height="46" fill="white"/>
</clipPath>
</defs>
</svg>
